<svg xmlns="http://www.w3.org/2000/svg" width="793.65064" height="200.00001"><path fill="#44aca6" d="M 131.64 27.5419 L 78.4324 153.475 L 44.5615 153.475 L 44.5615 27.5419 L 1.23e-05 27.5419 L 1.23e-05 185.11 L 4.29112 185.11 L 44.5615 185.11 L 109.982 185.11 L 153.564 78.6092 L 199.552 185.11 L 245.274 185.11 L 180.567 27.5419 ZM 358.372 162.029 C 323.085 162.029 294.474 134.195 294.474 99.8666 C 294.474 65.5377 323.085 37.7041 358.372 37.7041 C 393.659 37.7041 422.27 65.5377 422.27 99.8666 C 422.27 134.195 393.659 162.029 358.372 162.029 M 336.182 -9.43e-05 C 279.482 -9.43e-05 233.515 44.7743 233.515 99.9943 C 233.515 155.225 279.482 199.999 336.182 199.999 C 392.882 199.999 438.849 155.225 438.849 99.9943 C 438.849 44.7743 392.882 -9.43e-05 336.182 -9.43e-05M 678.951 27.8092 L 633.495 131.988 L 599.007 27.8092 L 559.705 27.8092 L 525.408 131.786 L 485.638 27.8092 L 433.24 27.8092 L 499.545 186.356 L 548.205 186.356 L 579.223 103.473 L 609.974 186.356 L 656.228 186.356 L 701.141 79.1427 L 747.13 186.356 L 793.65 186.356 L 728.41 27.8092 Z"/></svg>