<svg width="2500" height="461" viewBox="0 0 2500 461" fill="none" xmlns="http://www.w3.org/2000/svg">
<g clip-path="url(#clip0_2346_355)">
<path fill-rule="evenodd" clip-rule="evenodd" d="M472.489 48.9563V134.738H340.962V414.963H241.834V134.738H110.295V48.9563H472.489ZM613.548 139.498C610.694 129.019 599.255 128.072 595.442 138.551L555.404 277.704H653.585L613.548 139.498ZM676.464 357.766H532.539L516.326 414.963H419.105L523.94 48.9434H685.011L789.859 414.963H692.637L676.464 357.766ZM830.791 48.4894H1191.25C1202.06 48.4894 1212.77 50.6194 1222.76 54.7578C1232.75 58.8961 1241.82 64.9619 1249.47 72.6085C1257.11 80.2551 1263.18 89.3328 1267.32 99.3233C1271.45 109.314 1273.58 120.021 1273.58 130.834V415.054H1174.01L1174.46 151.223C1174.46 146.854 1172.73 142.665 1169.64 139.576C1166.55 136.487 1162.36 134.751 1157.99 134.751H1101.56V414.976H1002.43V134.738H929.997V414.963H830.869L830.791 48.4894ZM2064.14 48.4894H2307.35C2329.19 48.4894 2350.13 57.1646 2365.58 72.6069C2381.02 88.0492 2389.7 108.994 2389.71 130.834V415.054H2290.12L2290.58 151.223C2290.58 146.854 2288.84 142.665 2285.75 139.576C2282.66 136.487 2278.47 134.751 2274.11 134.751H2163.33V414.976H2064.2L2064.14 48.4894ZM1414.18 315.822H1513.99C1516.15 315.82 1518.29 316.245 1520.29 317.072C1522.29 317.899 1524.11 319.112 1525.64 320.642C1527.17 322.172 1528.39 323.988 1529.22 325.987C1530.04 327.987 1530.47 330.13 1530.47 332.294V414.704H1629.6V320.621C1630.53 296.783 1606.19 276.213 1587.85 271.245C1602.76 264.943 1615.49 254.385 1624.44 240.89C1633.39 227.396 1638.16 211.563 1638.16 195.372V131.301C1638.16 109.459 1629.48 88.5106 1614.04 73.0655C1598.59 57.6203 1577.64 48.9434 1555.8 48.9434H1315.06V414.963H1414.18V315.822ZM1414.18 134.738H1501.89C1529.77 134.738 1540.95 157.358 1540.95 185.256C1540.95 213.153 1529.78 235.773 1501.89 235.773H1414.18V134.738ZM2027.06 231.013C2027.99 335.86 2025.16 364.433 1999.42 392.097C1973.69 419.736 1877.4 416.87 1849.76 416.87C1822.12 416.87 1725.86 419.736 1700.13 392.097C1674.4 364.433 1671.53 335.86 1672.49 231.013C1671.53 126.165 1674.38 97.567 1700.13 69.9284C1725.86 42.2898 1822.12 45.1431 1849.76 45.1431C1877.4 45.1431 1973.69 42.2898 1999.42 69.9284C2025.16 97.567 2027.99 126.165 2027.06 231.013ZM1925.08 231.013C1925.08 198.601 1925.71 152.144 1917.45 141.405C1907.93 129.019 1876.47 130.912 1849.76 130.912C1823.08 130.912 1791.63 129.019 1782.1 141.405C1773.84 152.144 1774.47 198.601 1774.47 231.013C1774.47 263.411 1773.84 309.869 1782.1 320.608C1791.62 332.994 1823.08 331.075 1849.76 331.075C1876.47 331.075 1907.92 332.994 1917.45 320.608C1925.71 309.869 1925.08 263.411 1925.08 231.013Z" fill="black"/>
</g>
<defs>
<clipPath id="clip0_2346_355">
<rect width="2500" height="461" fill="white"/>
</clipPath>
</defs>
</svg>
